# xmcd CD database file
#
# Track frame offsets:
#	150
#	49774
#	105983
#	166524
#	196914
#
# Disc length: 3389 seconds
#
# Revision: 0
# Processed by: cddbd v1.5.2PL0 Copyright (c) Steve Scherf et al.
# Submitted via: CDex 1.70beta2
#
DISCID=2f0d3b05
DTITLE=Danny Lockwood - A Few Of My Favourite Grooves
DYEAR=2008
DGENRE=Jazz
TTITLE0=Sentimental Favourite
TTITLE1=Killer Joe
TTITLE2=Road Rage
TTITLE3=Down by the Riverside
TTITLE4=Never Underestimate The Power Of Elvis
EXTD=YEAR: 2008
EXTT0=
EXTT1=
EXTT2=
EXTT3=
EXTT4=
PLAYORDER=
